#tb 0: 1/192000
#media_type 0: audio
#codec_id 0: pcm_s16le
#sample_rate 0: 192000
#channel_layout_name 0: stereo
0,      -4096,      -4096,     2048,     8192, 0x00000000
0,      -2048,      -2048,     2048,     8192, 0x5a180402
0,          0,          0,     2048,     8192, 0x53413568
0,       2048,       2048,     2048,     8192, 0x2a34e9e1
0,       4096,       4096,     2048,     8192, 0x51dad4d7
0,       6144,       6144,     2048,     8192, 0x9861024c
[PACKET]
pts=0
duration=2048
[SIDE_DATA]
side_data_type=Skip Samples
skip_samples=4096
discard_padding=0
skip_reason=0
discard_reason=0
[/SIDE_DATA]
[/PACKET]
[PACKET]
pts=2048
duration=2048
[/PACKET]
[PACKET]
pts=4096
duration=2048
[/PACKET]
[PACKET]
pts=6144
duration=2048
[/PACKET]
[PACKET]
pts=8192
duration=2048
[/PACKET]
[PACKET]
pts=10240
duration=2048
[/PACKET]
[STREAM]
initial_padding=4096
start_time=0.021333
[/STREAM]
